<!-- Generated by IcoMoon.io -->
<svg version="1.1" xmlns="http://www.w3.org/2000/svg" width="32" height="32" viewBox="0 0 32 32">
<title>instagram</title>
<path d="M9.404 0.096c1.706-0.079 2.25-0.096 6.596-0.096s4.89 0.019 6.595 0.096c1.705 0.077 2.868 0.349 3.887 0.743 1.066 0.403 2.033 1.033 2.833 1.847 0.815 0.799 1.443 1.764 1.844 2.832 0.396 1.018 0.666 2.182 0.745 3.884 0.079 1.709 0.096 2.253 0.096 6.598 0 4.346-0.019 4.89-0.096 6.596-0.077 1.702-0.349 2.865-0.745 3.884-0.424 1.109-1.051 2.055-1.843 2.834l-0.001 0.001c-0.8 0.815-1.767 1.443-2.833 1.844-1.018 0.396-2.182 0.666-3.884 0.745-1.708 0.079-2.252 0.096-6.598 0.096s-4.89-0.019-6.596-0.096c-1.702-0.077-2.865-0.349-3.884-0.745-1.109-0.424-2.055-1.051-2.834-1.843l-0.001-0.001c-0.794-0.779-1.421-1.725-1.828-2.78l-0.018-0.054c-0.394-1.018-0.665-2.182-0.743-3.884-0.079-1.709-0.096-2.253-0.096-6.598 0-4.346 0.019-4.89 0.096-6.595s0.349-2.868 0.743-3.887c0.425-1.109 1.053-2.054 1.846-2.832l0.001-0.001c0.779-0.793 1.724-1.421 2.778-1.828l0.054-0.018c1.018-0.394 2.182-0.665 3.884-0.743h0.001zM22.465 2.976c-1.687-0.077-2.193-0.093-6.465-0.093s-4.778 0.016-6.465 0.093c-1.561 0.071-2.407 0.332-2.972 0.551-0.746 0.291-1.28 0.636-1.84 1.196-0.518 0.504-0.925 1.119-1.184 1.806l-0.011 0.034c-0.22 0.564-0.48 1.411-0.551 2.972-0.077 1.687-0.093 2.193-0.093 6.465s0.016 4.778 0.093 6.465c0.071 1.561 0.332 2.407 0.551 2.972 0.256 0.694 0.665 1.324 1.196 1.84 0.516 0.531 1.146 0.94 1.84 1.196 0.564 0.22 1.411 0.48 2.972 0.551 1.687 0.077 2.192 0.093 6.465 0.093s4.778-0.016 6.465-0.093c1.561-0.071 2.407-0.332 2.972-0.551 0.746-0.291 1.28-0.636 1.84-1.196 0.531-0.516 0.94-1.146 1.196-1.84 0.22-0.564 0.48-1.411 0.551-2.972 0.077-1.687 0.093-2.193 0.093-6.465s-0.016-4.778-0.093-6.465c-0.071-1.561-0.332-2.407-0.551-2.972-0.291-0.746-0.636-1.28-1.196-1.84-0.504-0.518-1.119-0.925-1.806-1.184l-0.034-0.011c-0.564-0.22-1.411-0.48-2.972-0.551zM13.956 20.932c0.604 0.257 1.306 0.407 2.044 0.407 2.948 0 5.338-2.39 5.338-5.338 0-2.304-1.459-4.266-3.504-5.015l-0.037-0.012c-0.535-0.197-1.153-0.312-1.797-0.312-2.948 0-5.338 2.39-5.338 5.338 0 2.211 1.344 4.108 3.259 4.918l0.035 0.013zM10.185 10.185c1.488-1.488 3.544-2.409 5.815-2.409 4.542 0 8.224 3.682 8.224 8.224 0 2.271-0.921 4.327-2.409 5.815v0c-1.488 1.488-3.544 2.409-5.815 2.409-4.542 0-8.224-3.682-8.224-8.224 0-2.271 0.921-4.327 2.409-5.815v0zM26.048 9.001c0.376-0.355 0.61-0.857 0.61-1.414 0-1.073-0.87-1.944-1.944-1.944-0.517 0-0.987 0.202-1.335 0.531l0.001-0.001c-0.376 0.355-0.61 0.857-0.61 1.414 0 1.073 0.87 1.944 1.944 1.944 0.517 0 0.987-0.202 1.335-0.531l-0.001 0.001z"></path>
</svg>
