<!-- Generated by IcoMoon.io -->
<svg version="1.1" xmlns="http://www.w3.org/2000/svg" width="32" height="32" viewBox="0 0 32 32">
<title>phone</title>
<path d="M22 0c1.988 0 3.6 1.612 3.6 3.6v0 24.8c0 1.988-1.612 3.6-3.6 3.6v0h-12c-1.988 0-3.6-1.612-3.6-3.6v0-24.8c0-1.988 1.612-3.6 3.6-3.6v0h12zM22 2.4h-12c-0.663 0-1.2 0.537-1.2 1.2v0 24.8c0 0.662 0.538 1.2 1.2 1.2h12c0.663 0 1.2-0.537 1.2-1.2v0-24.8c0-0.663-0.537-1.2-1.2-1.2v0zM17.998 24.8c0 0 0.001 0 0.002 0 0.663 0 1.2 0.537 1.2 1.2s-0.536 1.199-1.198 1.2l-4 0.006c-0 0-0.001 0-0.002 0-0.663 0-1.2-0.537-1.2-1.2s0.536-1.199 1.198-1.2l4-0.006z"></path>
</svg>
