<svg aria-hidden="true" style="position: absolute; width: 0; height: 0; overflow: hidden;" version="1.1" xmlns="http://www.w3.org/2000/svg" xmlns:xlink="http://www.w3.org/1999/xlink">
<defs>
<symbol id="icon-close" viewBox="0 0 32 32">
<path d="M31.439 3.166l-3.166-3.166-12.554 12.552-12.552-12.552-3.166 3.166 12.552 12.552-12.552 12.554 3.166 3.166 12.552-12.554 12.554 12.554 3.166-3.166-12.554-12.554 12.554-12.552z"></path>
</symbol>
<symbol id="icon-facebook" viewBox="0 0 32 32">
<path d="M13.912 11.099v2.203h-1.613v2.693h1.613v8.005h3.315v-8.005h2.224s0.21-1.291 0.31-2.704h-2.522v-1.84c0-0.277 0.362-0.646 0.72-0.646h1.805v-2.805h-2.456c-3.478 0-3.397 2.696-3.397 3.099z"></path>
<path d="M6.4 3.2c-1.767 0-3.2 1.433-3.2 3.2v0 19.2c0 1.767 1.433 3.2 3.2 3.2v0h19.2c1.767 0 3.2-1.433 3.2-3.2v0-19.2c0-1.767-1.433-3.2-3.2-3.2v0h-19.2zM6.4 0h19.2c3.535 0 6.4 2.865 6.4 6.4v0 19.2c0 3.535-2.865 6.4-6.4 6.4v0h-19.2c-3.535 0-6.4-2.865-6.4-6.4v0-19.2c0-3.535 2.865-6.4 6.4-6.4v0z"></path>
</symbol>
<symbol id="icon-instagram" viewBox="0 0 32 32">
<path d="M9.404 0.096c1.706-0.079 2.25-0.096 6.596-0.096s4.89 0.019 6.595 0.096c1.705 0.077 2.868 0.349 3.887 0.743 1.066 0.403 2.033 1.033 2.833 1.847 0.815 0.799 1.443 1.764 1.844 2.832 0.396 1.018 0.666 2.182 0.745 3.884 0.079 1.709 0.096 2.253 0.096 6.598 0 4.346-0.019 4.89-0.096 6.596-0.077 1.702-0.349 2.865-0.745 3.884-0.424 1.109-1.051 2.055-1.843 2.834l-0.001 0.001c-0.8 0.815-1.767 1.443-2.833 1.844-1.018 0.396-2.182 0.666-3.884 0.745-1.708 0.079-2.252 0.096-6.598 0.096s-4.89-0.019-6.596-0.096c-1.702-0.077-2.865-0.349-3.884-0.745-1.109-0.424-2.055-1.051-2.834-1.843l-0.001-0.001c-0.794-0.779-1.421-1.725-1.828-2.78l-0.018-0.054c-0.394-1.018-0.665-2.182-0.743-3.884-0.079-1.709-0.096-2.253-0.096-6.598 0-4.346 0.019-4.89 0.096-6.595s0.349-2.868 0.743-3.887c0.425-1.109 1.053-2.054 1.846-2.832l0.001-0.001c0.779-0.793 1.724-1.421 2.778-1.828l0.054-0.018c1.018-0.394 2.182-0.665 3.884-0.743h0.001zM22.465 2.976c-1.687-0.077-2.193-0.093-6.465-0.093s-4.778 0.016-6.465 0.093c-1.561 0.071-2.407 0.332-2.972 0.551-0.746 0.291-1.28 0.636-1.84 1.196-0.518 0.504-0.925 1.119-1.184 1.806l-0.011 0.034c-0.22 0.564-0.48 1.411-0.551 2.972-0.077 1.687-0.093 2.193-0.093 6.465s0.016 4.778 0.093 6.465c0.071 1.561 0.332 2.407 0.551 2.972 0.256 0.694 0.665 1.324 1.196 1.84 0.516 0.531 1.146 0.94 1.84 1.196 0.564 0.22 1.411 0.48 2.972 0.551 1.687 0.077 2.192 0.093 6.465 0.093s4.778-0.016 6.465-0.093c1.561-0.071 2.407-0.332 2.972-0.551 0.746-0.291 1.28-0.636 1.84-1.196 0.531-0.516 0.94-1.146 1.196-1.84 0.22-0.564 0.48-1.411 0.551-2.972 0.077-1.687 0.093-2.193 0.093-6.465s-0.016-4.778-0.093-6.465c-0.071-1.561-0.332-2.407-0.551-2.972-0.291-0.746-0.636-1.28-1.196-1.84-0.504-0.518-1.119-0.925-1.806-1.184l-0.034-0.011c-0.564-0.22-1.411-0.48-2.972-0.551zM13.956 20.932c0.604 0.257 1.306 0.407 2.044 0.407 2.948 0 5.338-2.39 5.338-5.338 0-2.304-1.459-4.266-3.504-5.015l-0.037-0.012c-0.535-0.197-1.153-0.312-1.797-0.312-2.948 0-5.338 2.39-5.338 5.338 0 2.211 1.344 4.108 3.259 4.918l0.035 0.013zM10.185 10.185c1.488-1.488 3.544-2.409 5.815-2.409 4.542 0 8.224 3.682 8.224 8.224 0 2.271-0.921 4.327-2.409 5.815v0c-1.488 1.488-3.544 2.409-5.815 2.409-4.542 0-8.224-3.682-8.224-8.224 0-2.271 0.921-4.327 2.409-5.815v0zM26.048 9.001c0.376-0.355 0.61-0.857 0.61-1.414 0-1.073-0.87-1.944-1.944-1.944-0.517 0-0.987 0.202-1.335 0.531l0.001-0.001c-0.376 0.355-0.61 0.857-0.61 1.414 0 1.073 0.87 1.944 1.944 1.944 0.517 0 0.987-0.202 1.335-0.531l-0.001 0.001z"></path>
</symbol>
<symbol id="icon-left" viewBox="0 0 32 32">
<path d="M32 14.923h-27.904l6.421-6.465-1.515-1.524-9.003 9.067 9.003 9.067 1.514-1.524-6.42-6.464h27.904v-2.156z"></path>
</symbol>
<symbol id="icon-map" viewBox="0 0 32 32">
<path d="M16 0.656c-0.005 0-0.010 0-0.016 0-5.293 0-9.584 4.291-9.584 9.584v0c0 9.166 9.6 21.12 9.6 21.12s9.6-11.957 9.6-21.12c0 0 0 0 0 0 0-5.293-4.291-9.584-9.584-9.584-0.006 0-0.011 0-0.017 0h0.001zM16 15.539c-2.863 0-5.184-2.321-5.184-5.184s2.321-5.184 5.184-5.184v0c2.863 0 5.184 2.321 5.184 5.184s-2.321 5.184-5.184 5.184v0z"></path>
</symbol>
<symbol id="icon-phone" viewBox="0 0 32 32">
<path d="M22 0c1.988 0 3.6 1.612 3.6 3.6v0 24.8c0 1.988-1.612 3.6-3.6 3.6v0h-12c-1.988 0-3.6-1.612-3.6-3.6v0-24.8c0-1.988 1.612-3.6 3.6-3.6v0h12zM22 2.4h-12c-0.663 0-1.2 0.537-1.2 1.2v0 24.8c0 0.662 0.538 1.2 1.2 1.2h12c0.663 0 1.2-0.537 1.2-1.2v0-24.8c0-0.663-0.537-1.2-1.2-1.2v0zM17.998 24.8c0 0 0.001 0 0.002 0 0.663 0 1.2 0.537 1.2 1.2s-0.536 1.199-1.198 1.2l-4 0.006c-0 0-0.001 0-0.002 0-0.663 0-1.2-0.537-1.2-1.2s0.536-1.199 1.198-1.2l4-0.006z"></path>
</symbol>
<symbol id="icon-right" viewBox="0 0 32 32">
<path d="M22.997 6.933l-1.515 1.524 6.421 6.464h-27.904v2.156h27.904l-6.421 6.465 1.515 1.524 9.003-9.067-9.003-9.067z"></path>
</symbol>
<symbol id="icon-telegram" viewBox="0 0 32 32">
<path d="M29.683 2.395c-0.411 0.030-0.792 0.126-1.143 0.276l0.023-0.009h-0.003c-0.342 0.136-1.968 0.819-4.44 1.856l-8.859 3.731c-6.357 2.678-12.605 5.312-12.605 5.312l0.075-0.029s-0.432 0.141-0.88 0.448c-0.28 0.178-0.518 0.41-0.704 0.682-0.216 0.314-0.344 0.702-0.344 1.12 0 0.075 0.004 0.149 0.012 0.222l-0.001-0.009c0.107 0.866 0.669 1.386 1.072 1.672 0.408 0.291 0.797 0.426 0.797 0.426h0.010l5.861 1.974c0.262 0.843 1.786 5.85 2.15 7.003 0.216 0.688 0.427 1.12 0.69 1.448 0.128 0.168 0.275 0.309 0.454 0.422 0.093 0.054 0.192 0.096 0.296 0.128l-0.061-0.016c0.018 0.005 0.032 0.019 0.046 0.024 0.048 0.013 0.080 0.018 0.141 0.027 0.928 0.282 1.674-0.294 1.674-0.294l0.042-0.034 3.459-3.15 5.798 4.448 0.133 0.058c1.208 0.53 2.432 0.235 3.078-0.286 0.653-0.525 0.906-1.195 0.906-1.195l0.042-0.107 4.48-22.955c0.128-0.566 0.16-1.098 0.021-1.611-0.146-0.522-0.48-0.97-0.938-1.258-0.332-0.205-0.735-0.326-1.166-0.326-0.040 0-0.080 0.001-0.12 0.003l0.006-0zM29.563 4.854c-0.005 0.077 0.010 0.067-0.024 0.213v0.013l-4.438 22.717c-0.021 0.032-0.053 0.102-0.141 0.174-0.094 0.074-0.168 0.12-0.558-0.034l-7.091-5.438-4.285 3.904 0.899-5.747 11.587-10.8c0.478-0.443 0.32-0.538 0.32-0.538 0.032-0.544-0.722-0.16-0.722-0.16l-14.614 9.054-0.005-0.024-7.019-2.368c0.014-0.005 0.026-0.011 0.037-0.017l-0.002 0.001 0.038-0.018 0.037-0.013 12.61-5.312c3.182-1.341 6.389-2.69 8.854-3.731 1.462-0.616 2.928-1.229 4.392-1.837 0.099-0.038 0.053-0.040 0.123-0.040z"></path>
</symbol>
<symbol id="icon-maps" viewBox="0 0 32 32">
<path d="M16 3.214c-4.419 0-8 3.566-8 7.984 0 7.638 8 17.6 8 17.6s8-9.963 8-17.6c0-4.416-3.581-7.984-8-7.984zM16 15.616c-1.146 0-2.245-0.455-3.055-1.265s-1.265-1.909-1.265-3.055c0-1.146 0.455-2.245 1.265-3.055s1.909-1.265 3.055-1.265c1.146 0 2.245 0.455 3.055 1.265s1.265 1.909 1.265 3.055c0 1.146-0.455 2.245-1.265 3.055s-1.909 1.265-3.055 1.265z"></path>
</symbol>
</defs>
</svg>
