<!-- Generated by IcoMoon.io -->
<svg version="1.1" xmlns="http://www.w3.org/2000/svg" width="32" height="32" viewBox="0 0 32 32">
<title>telegram</title>
<path d="M29.683 2.395c-0.411 0.030-0.792 0.126-1.143 0.276l0.023-0.009h-0.003c-0.342 0.136-1.968 0.819-4.44 1.856l-8.859 3.731c-6.357 2.678-12.605 5.312-12.605 5.312l0.075-0.029s-0.432 0.141-0.88 0.448c-0.28 0.178-0.518 0.41-0.704 0.682-0.216 0.314-0.344 0.702-0.344 1.12 0 0.075 0.004 0.149 0.012 0.222l-0.001-0.009c0.107 0.866 0.669 1.386 1.072 1.672 0.408 0.291 0.797 0.426 0.797 0.426h0.010l5.861 1.974c0.262 0.843 1.786 5.85 2.15 7.003 0.216 0.688 0.427 1.12 0.69 1.448 0.128 0.168 0.275 0.309 0.454 0.422 0.093 0.054 0.192 0.096 0.296 0.128l-0.061-0.016c0.018 0.005 0.032 0.019 0.046 0.024 0.048 0.013 0.080 0.018 0.141 0.027 0.928 0.282 1.674-0.294 1.674-0.294l0.042-0.034 3.459-3.15 5.798 4.448 0.133 0.058c1.208 0.53 2.432 0.235 3.078-0.286 0.653-0.525 0.906-1.195 0.906-1.195l0.042-0.107 4.48-22.955c0.128-0.566 0.16-1.098 0.021-1.611-0.146-0.522-0.48-0.97-0.938-1.258-0.332-0.205-0.735-0.326-1.166-0.326-0.040 0-0.080 0.001-0.12 0.003l0.006-0zM29.563 4.854c-0.005 0.077 0.010 0.067-0.024 0.213v0.013l-4.438 22.717c-0.021 0.032-0.053 0.102-0.141 0.174-0.094 0.074-0.168 0.12-0.558-0.034l-7.091-5.438-4.285 3.904 0.899-5.747 11.587-10.8c0.478-0.443 0.32-0.538 0.32-0.538 0.032-0.544-0.722-0.16-0.722-0.16l-14.614 9.054-0.005-0.024-7.019-2.368c0.014-0.005 0.026-0.011 0.037-0.017l-0.002 0.001 0.038-0.018 0.037-0.013 12.61-5.312c3.182-1.341 6.389-2.69 8.854-3.731 1.462-0.616 2.928-1.229 4.392-1.837 0.099-0.038 0.053-0.040 0.123-0.040z"></path>
</svg>
